<svg width="1000" height="1000" viewBox="200 150 600 600" xmlns="http://www.w3.org/2000/svg"><defs/><path fill="#127ac1" transform="matrix(3.8507933562215833 0 0 3.8507933562215833 -214.07692066437778 -152.688492159228)" d="M 185.43131262651 234.60418987952 L 111.97131262651 195.73418987952 L 111.97131262651 117.46418987952 L 185.43131262651 78.60418987952 L 258.90131262651 117.46418987952 L 258.90131262651 195.73418987952 Z M 119.24131262651 191.33418987952 L 185.40131262651 226.33418987952 L 251.56131262651 191.33418987952 L 251.56131262651 121.86418987952 L 185.40131262651 86.86418987952 L 119.24131262651 121.86418987952 Z"/><path fill="#ed3926" transform="matrix(3.8507933562215833 0 0 3.8507933562215833 -214.07692066437778 -152.688492159228)" d="M 238.94131262651 138.04418987952 L 238.94131262651 185.64418987952 L 195.94131262651 206.30418987952 C 194.48599494496 203.25987279412 191.77721992601 201.00012651821 188.52131262651 200.11418987952 L 188.52131262651 155.75418987952 C 191.83534691303 154.4884472174 194.01828695061 151.30167343992 194.00131262651 147.75418987952 C 194.01031405101 147.71469628979 194.01031405101 147.67368346925 194.00131262651 147.63418987952 L 229.73131262651 133.33418987952 C 231.8925751043 136.26191478635 235.30247350371 138.00573904923 238.94131262651 138.04418987952 Z"/><path fill="#ed3926" transform="matrix(3.8507933562215833 0 0 3.8507933562215833 -214.07692066437778 -152.688492159228)" d="M 182.40131262651 155.75418987952 L 182.40131262651 200.04418987952 C 179.14421103875 200.93116981743 176.43076110843 203.18508387245 174.96131262651 206.22418987952 L 131.96131262651 185.57418987952 L 131.96131262651 138.04418987952 C 135.61891482312 138.04186527845 139.06002898719 136.31018390494 141.24131262651 133.37418987952 L 176.97131262651 147.67418987952 C 176.96676972228 147.71406089215 176.96676972228 147.75431886689 176.97131262651 147.79418987952 C 176.95732969675 151.31626434783 179.11695041389 154.48211718547 182.40131262651 155.75418987952 Z"/><path fill="#ed3926" transform="matrix(3.8507933562215833 0 0 3.8507933562215833 -214.07692066437778 -152.688492159228)" d="M 227.33131262651 126.39418987952 C 227.33106867022 126.84237475607 227.36113728466 127.29006301553 227.42131262651 127.73418987952 L 191.69131262651 142.04418987952 C 190.08179498959 140.29496649558 187.81335479493 139.29961992427 185.43631262651 139.29961992427 C 183.05927045809 139.29961992427 180.79083026343 140.29496649558 179.18131262651 142.04418987952 L 143.44131262651 127.73418987952 C 143.50148796836 127.29006301553 143.5315565828 126.84237475607 143.53131262651 126.39418987952 C 143.52332611532 124.80457764197 143.18268850595 123.23423826279 142.53131262651 121.78418987952 L 185.44131262651 103.19418987952 L 228.30131262651 121.78418987952 C 227.65567769206 123.23499170562 227.32507105353 124.80622531759 227.33131262651 126.39418987952 Z"/><path fill="#ed3926" transform="matrix(3.8507933562215833 0 0 3.8507933562215833 -214.07692066437778 -152.688492159228)" d="M 137.28131262651 126.68418987952 C 137.28131262651 129.64443613861 134.8815588856 132.04418987952 131.92131262651 132.04418987952 C 128.96106636742 132.04418987952 126.56131262651 129.64443613861 126.56131262651 126.68418987952 C 126.56131262651 123.72394362043 128.96106636742 121.32418987952 131.92131262651 121.32418987952 C 134.8815588856 121.32418987952 137.28131262651 123.72394362043 137.28131262651 126.68418987952 Z"/><path fill="#ed3926" transform="matrix(3.8507933562215833 0 0 3.8507933562215833 -214.07692066437778 -152.688492159228)" d="M 244.30131262651 126.68418987952 C 244.30131262651 129.64443613861 241.9015588856 132.04418987952 238.94131262651 132.04418987952 C 235.98106636742 132.04418987952 233.58131262651 129.64443613861 233.58131262651 126.68418987952 C 233.58131262651 123.72394362043 235.98106636742 121.32418987952 238.94131262651 121.32418987952 C 241.9015588856 121.32418987952 244.30131262651 123.72394362043 244.30131262651 126.68418987952 Z"/><path fill="#ed3926" transform="matrix(3.8507933562215833 0 0 3.8507933562215833 -214.07692066437778 -152.688492159228)" d="M 189.86131262651 148.00418987952 C 189.86131262651 150.45081132127 187.87793406826 152.43418987952 185.43131262651 152.43418987952 C 182.98469118476 152.43418987952 181.00131262651 150.45081132127 181.00131262651 148.00418987952 C 181.00131262651 145.55756843777 182.98469118476 143.57418987952 185.43131262651 143.57418987952 C 187.87793406826 143.57418987952 189.86131262651 145.55756843777 189.86131262651 148.00418987952 Z"/><path fill="#ed3926" transform="matrix(3.8507933562215833 0 0 3.8507933562215833 -214.07692066437778 -152.688492159228)" d="M 190.79131262651 211.63418987952 C 190.79131262651 214.59443613861 188.3915588856 216.99418987952 185.43131262651 216.99418987952 C 182.47106636742 216.99418987952 180.07131262651 214.59443613861 180.07131262651 211.63418987952 C 180.07131262651 208.67394362043 182.47106636742 206.27418987952 185.43131262651 206.27418987952 C 188.3915588856 206.27418987952 190.79131262651 208.67394362043 190.79131262651 211.63418987952 Z"/><path id="text" fill="#333333" transform="matrix(0.7539203860072378 0 0 0.7539203860072378 -43.152846246636315 752.7638600723764)" d="M 513.79793526154 50.158016 L 526.27793526154 50.158016 L 536.54993526154 105.166016 L 546.24593526154 50.158016 L 559.01393526154 50.158016 L 543.36593526154 127.918016 L 529.44593526154 127.918016 L 513.79793526154 50.158016 Z M 569.18993526154 123.646016 C 566.30993526154 120.222016 564.86993526154 115.150016 564.86993526154 108.430016 L 564.86993526154 91.918016 C 564.86993526154 85.134016 566.32593526154 80.046016 569.23793526154 76.654016 C 572.14993526154 73.262016 576.64593526154 71.566016 582.72593526154 71.566016 C 588.99793526154 71.566016 593.42993526154 73.326016 596.02193526154 76.846016 C 598.61393526154 80.366016 599.90993526154 85.678016 599.90993526154 92.782016 L 599.90993526154 100.750016 L 577.82993526154 100.750016 L 577.82993526154 111.694016 C 577.82993526154 114.382016 578.22993526154 116.334016 579.02993526154 117.550016 C 579.82993526154 118.766016 581.09393526154 119.374016 582.82193526154 119.374016 C 584.48593526154 119.374016 585.68593526154 118.782016 586.42193526154 117.598016 C 587.15793526154 116.414016 587.52593526154 114.606016 587.52593526154 112.174016 L 587.52593526154 107.470016 L 599.81393526154 107.470016 L 599.81393526154 111.310016 C 599.81393526154 117.006016 598.37393526154 121.342016 595.49393526154 124.318016 C 592.61393526154 127.294016 588.35793526154 128.782016 582.72593526154 128.782016 C 576.58193526154 128.782016 572.06993526154 127.070016 569.18993526154 123.646016 Z M 587.52593526154 94.318016 L 587.52593526154 89.038016 C 587.52593526154 86.158016 587.17393526154 84.094016 586.46993526154 82.846016 C 585.76593526154 81.598016 584.51793526154 80.974016 582.72593526154 80.974016 C 580.86993526154 80.974016 579.58993526154 81.646016 578.88593526154 82.990016 C 578.18193526154 84.334016 577.82993526154 86.830016 577.82993526154 90.478016 L 577.82993526154 94.318016 L 587.52593526154 94.318016 Z M 609.60593526154 72.430016 L 622.66193526154 72.430016 L 622.66193526154 80.974016 C 624.51793526154 77.710016 626.40593526154 75.358016 628.32593526154 73.918016 C 630.24593526154 72.478016 632.38993526154 71.758016 634.75793526154 71.758016 C 635.58993526154 71.758016 636.26193526154 71.822016 636.77393526154 71.950016 L 636.77393526154 85.486016 C 634.72593526154 84.718016 632.93393526154 84.334016 631.39793526154 84.334016 C 627.94193526154 84.334016 625.02993526154 86.126016 622.66193526154 89.710016 L 622.66193526154 127.918016 L 609.60593526154 127.918016 L 609.60593526154 72.430016 Z M 644.16593526154 52.750016 L 657.22193526154 52.750016 L 657.22193526154 63.598016 L 644.16593526154 63.598016 L 644.16593526154 52.750016 Z M 644.16593526154 72.430016 L 657.22193526154 72.430016 L 657.22193526154 127.918016 L 644.16593526154 127.918016 L 644.16593526154 72.430016 Z M 670.66193526154 81.550016 L 664.80593526154 81.550016 L 664.80593526154 72.430016 L 670.66193526154 72.430016 L 670.66193526154 68.878016 C 670.66193526154 63.374016 671.70193526154 59.262016 673.78193526154 56.542016 C 675.86193526154 53.822016 679.49393526154 52.462016 684.67793526154 52.462016 C 686.34193526154 52.462016 688.38993526154 52.622016 690.82193526154 52.942016 L 690.82193526154 62.254016 C 689.98993526154 61.998016 689.02993526154 61.870016 687.94193526154 61.870016 C 686.40593526154 61.870016 685.31793526154 62.318016 684.67793526154 63.214016 C 684.03793526154 64.110016 683.71793526154 65.646016 683.71793526154 67.822016 L 683.71793526154 72.430016 L 708.00593526154 72.430016 L 708.00593526154 127.918016 L 695.04593526154 127.918016 L 695.04593526154 81.550016 L 683.71793526154 81.550016 L 683.71793526154 127.918016 L 670.66193526154 127.918016 L 670.66193526154 81.550016 Z M 696.00593526154 52.750016 L 708.10193526154 52.750016 L 708.10193526154 63.598016 L 696.00593526154 63.598016 L 696.00593526154 52.750016 Z M 722.11793526154 123.646016 C 719.23793526154 120.222016 717.79793526154 115.150016 717.79793526154 108.430016 L 717.79793526154 91.918016 C 717.79793526154 85.134016 719.25393526154 80.046016 722.16593526154 76.654016 C 725.07793526154 73.262016 729.57393526154 71.566016 735.65393526154 71.566016 C 741.92593526154 71.566016 746.35793526154 73.326016 748.94993526154 76.846016 C 751.54193526154 80.366016 752.83793526154 85.678016 752.83793526154 92.782016 L 752.83793526154 100.750016 L 730.75793526154 100.750016 L 730.75793526154 111.694016 C 730.75793526154 114.382016 731.15793526154 116.334016 731.95793526154 117.550016 C 732.75793526154 118.766016 734.02193526154 119.374016 735.74993526154 119.374016 C 737.41393526154 119.374016 738.61393526154 118.782016 739.34993526154 117.598016 C 740.08593526154 116.414016 740.45393526154 114.606016 740.45393526154 112.174016 L 740.45393526154 107.470016 L 752.74193526154 107.470016 L 752.74193526154 111.310016 C 752.74193526154 117.006016 751.30193526154 121.342016 748.42193526154 124.318016 C 745.54193526154 127.294016 741.28593526154 128.782016 735.65393526154 128.782016 C 729.50993526154 128.782016 724.99793526154 127.070016 722.11793526154 123.646016 Z M 740.45393526154 94.318016 L 740.45393526154 89.038016 C 740.45393526154 86.158016 740.10193526154 84.094016 739.39793526154 82.846016 C 738.69393526154 81.598016 737.44593526154 80.974016 735.65393526154 80.974016 C 733.79793526154 80.974016 732.51793526154 81.646016 731.81393526154 82.990016 C 731.10993526154 84.334016 730.75793526154 86.830016 730.75793526154 90.478016 L 730.75793526154 94.318016 L 740.45393526154 94.318016 Z M 764.69393526154 124.030016 C 762.48593526154 120.862016 761.38193526154 115.854016 761.38193526154 109.006016 L 761.38193526154 92.014016 C 761.38193526154 85.742016 762.42193526154 80.766016 764.50193526154 77.086016 C 766.58193526154 73.406016 769.95793526154 71.566016 774.62993526154 71.566016 C 778.21393526154 71.566016 781.54193526154 73.038016 784.61393526154 75.982016 L 784.61393526154 50.158016 L 797.76593526154 50.158016 L 797.76593526154 127.918016 L 784.61393526154 127.918016 L 784.61393526154 123.982016 C 781.54193526154 127.182016 778.24593526154 128.782016 774.72593526154 128.782016 C 770.24593526154 128.782016 766.90193526154 127.198016 764.69393526154 124.030016 Z M 784.61393526154 117.934016 L 784.61393526154 82.318016 C 782.94993526154 81.102016 781.22193526154 80.494016 779.42993526154 80.494016 C 776.10193526154 80.494016 774.43793526154 83.406016 774.43793526154 89.230016 L 774.43793526154 109.966016 C 774.43793526154 113.102016 774.78993526154 115.518016 775.49393526154 117.214016 C 776.19793526154 118.910016 777.50993526154 119.758016 779.42993526154 119.758016 C 781.09393526154 119.758016 782.82193526154 119.150016 784.61393526154 117.934016 Z M 836.88593526154 122.206016 C 833.52593526154 117.694016 831.84593526154 111.310016 831.84593526154 103.054016 L 831.84593526154 75.310016 C 831.84593526154 66.798016 833.50993526154 60.334016 836.83793526154 55.918016 C 840.16593526154 51.502016 845.89393526154 49.294016 854.02193526154 49.294016 C 861.63793526154 49.294016 867.04593526154 51.214016 870.24593526154 55.054016 C 873.44593526154 58.894016 875.04593526154 64.430016 875.04593526154 71.662016 L 875.04593526154 78.190016 L 861.41393526154 78.190016 L 861.41393526154 71.470016 C 861.41393526154 68.718016 861.28593526154 66.558016 861.02993526154 64.990016 C 860.77393526154 63.422016 860.11793526154 62.142016 859.06193526154 61.150016 C 858.00593526154 60.158016 856.35793526154 59.662016 854.11793526154 59.662016 C 851.81393526154 59.662016 850.08593526154 60.190016 848.93393526154 61.246016 C 847.78193526154 62.302016 847.02993526154 63.710016 846.67793526154 65.470016 C 846.32593526154 67.230016 846.14993526154 69.518016 846.14993526154 72.334016 L 846.14993526154 106.030016 C 846.14993526154 110.446016 846.72593526154 113.630016 847.87793526154 115.582016 C 849.02993526154 117.534016 851.10993526154 118.510016 854.11793526154 118.510016 C 856.29393526154 118.510016 857.90993526154 117.998016 858.96593526154 116.974016 C 860.02193526154 115.950016 860.69393526154 114.590016 860.98193526154 112.894016 C 861.26993526154 111.198016 861.41393526154 108.942016 861.41393526154 106.126016 L 861.41393526154 99.118016 L 875.04593526154 99.118016 L 875.04593526154 105.358016 C 875.04593526154 112.846016 873.47793526154 118.654016 870.34193526154 122.782016 C 867.20593526154 126.910016 861.76593526154 128.974016 854.02193526154 128.974016 C 845.95793526154 128.974016 840.24593526154 126.718016 836.88593526154 122.206016 Z M 881.86193526154 50.158016 L 894.34193526154 50.158016 L 904.61393526154 105.166016 L 914.30993526154 50.158016 L 927.07793526154 50.158016 L 911.42993526154 127.918016 L 897.50993526154 127.918016 L 881.86193526154 50.158016 Z"/></svg>
